<svg width="194" height="32" viewBox="0 0 194 32" fill="none" xmlns="http://www.w3.org/2000/svg">
<g id="Floww Ai_Hozintal logo ">
<g id="Group 15923">
<path id="Union" fill-rule="evenodd" clip-rule="evenodd" d="M1 28.7595C1 22.2719 6.25923 17.0127 12.7468 17.0127H33C33 23.5003 27.7408 28.7595 21.2532 28.7595H15.9873C14.1977 28.7595 12.7468 30.2104 12.7468 32H1V28.7595Z" fill="#2C5CE3"/>
<path id="Union_2" d="M1.00049 11.7468C1.00049 5.25925 6.25974 0 12.7473 0H33.0005C33.0005 6.48759 27.7412 11.7468 21.2537 11.7468H12.8486L11.7588 11.8434C7.39022 12.2305 3.43322 14.5787 1.00049 18.2278V11.7468Z" fill="#85E13A"/>
</g>
<g id="Floww.AI">
<path d="M45.9048 24.7391H41.0005V7.26087H45.9048V24.7391ZM56.2353 18.6609H42.3309V14.2783H56.2353V18.6609ZM56.6266 11.6696H42.3309V7.26087H56.6266V11.6696Z" fill="#233552"/>
<path d="M63.6032 24.7391H58.6989V7.26087H63.6032V24.7391ZM73.6989 24.7391H60.0554V20.3304H73.6989V24.7391Z" fill="#233552"/>
<path d="M85.2032 25C83.1858 25 81.4467 24.6348 79.9858 23.9043C78.5423 23.1565 77.438 22.113 76.6728 20.7739C75.9076 19.4174 75.5249 17.8261 75.5249 16C75.5249 14.1739 75.9076 12.5913 76.6728 11.2522C77.438 9.89565 78.5423 8.85217 79.9858 8.12174C81.4467 7.37391 83.1858 7 85.2032 7C87.2902 7 89.0554 7.37391 90.4989 8.12174C91.9597 8.85217 93.0728 9.89565 93.838 11.2522C94.6032 12.5913 94.9858 14.1739 94.9858 16C94.9858 17.8261 94.6032 19.4174 93.838 20.7739C93.0728 22.113 91.9597 23.1565 90.4989 23.9043C89.0554 24.6348 87.2902 25 85.2032 25ZM85.2032 20.3043C86.3858 20.3043 87.3076 20.1913 87.9684 19.9652C88.6293 19.7217 89.0902 19.287 89.351 18.6609C89.6293 18.0348 89.7684 17.1478 89.7684 16C89.7684 14.8348 89.6293 13.9478 89.351 13.3391C89.0902 12.713 88.6293 12.287 87.9684 12.0609C87.3076 11.8174 86.3858 11.6957 85.2032 11.6957C84.0206 11.6957 83.1076 11.8174 82.4641 12.0609C81.8206 12.287 81.3684 12.713 81.1076 13.3391C80.8641 13.9478 80.7423 14.8348 80.7423 16C80.7423 17.1478 80.8641 18.0348 81.1076 18.6609C81.3684 19.287 81.8206 19.7217 82.4641 19.9652C83.1076 20.1913 84.0206 20.3043 85.2032 20.3043Z" fill="#233552"/>
<path d="M107.459 24.7391H100.181L96.5284 7.26087H102.007L103.468 16.1565L103.937 20.0957H104.276L104.981 16.1565L107.328 7.26087H114.711L116.85 16.1565L117.476 20.0957H117.815L118.337 16.1565L119.981 7.26087H125.355L121.363 24.7391H114.085L112.259 17.2522L111.111 11.7739H110.772L109.546 17.2522L107.459 24.7391Z" fill="#233552"/>
<path d="M137.538 24.7391H130.26L126.608 7.26087H132.086L133.547 16.1565L134.017 20.0957H134.356L135.06 16.1565L137.408 7.26087H144.791L146.93 16.1565L147.556 20.0957H147.895L148.417 16.1565L150.06 7.26087H155.434L151.443 24.7391H144.164L142.338 17.2522L141.191 11.7739H140.851L139.625 17.2522L137.538 24.7391Z" fill="#233552"/>
<path d="M163.6 24.7391H157.235V19.7304H163.6V24.7391Z" fill="#233552"/>
<path d="M170.402 24.7391H164.897L172.436 7.26087H179.454L187.019 24.7391H181.384L177.236 14.6435L176.089 11.6957H175.749L174.628 14.6435L170.402 24.7391ZM182.245 21.5043H169.358V17.0957H182.245V21.5043Z" fill="#233552"/>
<path d="M193.231 24.7391H188.327V7.26087H193.231V24.7391Z" fill="#233552"/>
</g>
</g>
</svg>
